<svg id="Capa_1" enable-background="new 0 0 512 512" height="512" viewBox="0 0 512 512" width="512" xmlns="http://www.w3.org/2000/svg"><g><g><path d="m245 11c-58.656 0-112.489 20.623-154.668 55v380c42.179 34.377 96.012 55 154.668 55 135.31 0 245-109.69 245-245s-109.69-245-245-245z" fill="#9bd8f9"/></g><g><path d="m512 106v300c0 22.09-17.91 40-40 40h-381.68c-55.12-44.92-90.32-113.35-90.32-190s35.2-145.08 90.32-190h381.68c22.09 0 40 17.91 40 40z" fill="#ff4155"/></g><g><path d="m90.332 446h123.008c-22.091 0-40-17.909-40-40v-300c0-22.091 17.909-40 40-40h-123.008c-55.121 44.925-90.332 113.346-90.332 190s35.211 145.075 90.332 190z" fill="#e80054"/></g><g><path d="m50 136c0-11.046 8.954-20 20-20h160c11.046 0 20 8.954 20 20 0 11.046-8.954 20-20 20h-160c-11.046 0-20-8.954-20-20z" fill="#ffc839"/></g><g><path d="m110 136c0-11.046 8.954-20 20-20h-60c-11.046 0-20 8.954-20 20 0 11.046 8.954 20 20 20h60c-11.046 0-20-8.954-20-20z" fill="#ffb332"/></g><g><path d="m339.682 456h60c5.523 0 10-4.477 10-10v-380c0-5.523-4.477-10-10-10h-60c-5.523 0-10 4.477-10 10v380c0 5.523 4.477 10 10 10z" fill="#ffb332"/></g><g><path d="m409.682 445.291c0-22.091-17.909-40-40-40s-40 17.909-40 40v-248.582c0 22.091 17.909 40 40 40s40-17.909 40-40z" fill="#ff9433"/></g><g><path d="m344.682 56h15v400h-15z" fill="#ffc839" transform="matrix(-1 0 0 -1 704.365 512)"/></g><g><path d="m344.682 414.076c4.35-3.488 9.438-6.093 15-7.525v-171.102c-5.562-1.432-10.65-4.037-15-7.525z" fill="#ffb332"/></g><g><path d="m379.682 56h15v400h-15z" fill="#ffc839"/></g><g><path d="m379.682 406.551c5.562 1.432 10.65 4.037 15 7.525v-186.152c-4.35 3.488-9.438 6.093-15 7.525z" fill="#ffb332"/></g><g><g><path d="m379.682 303.858h97.833c0-33.574-15.115-67.149-29.59-67.149-36.338 0-68.242 62.277-68.242 62.277v4.872z" fill="#ffdd40"/></g><g><path d="m359.682 298.986s-31.904-62.277-68.242-62.277c-14.475 0-29.59 33.574-29.59 67.149h97.833v-4.872z" fill="#ffc839"/></g><g><path d="m359.682 338.142h-97.832c0 33.574 15.115 67.149 29.59 67.149 36.338 0 68.242-62.277 68.242-62.277z" fill="#ffc839"/></g><g><path d="m379.682 343.014s31.904 62.277 68.242 62.277c14.475 0 29.59-33.574 29.59-67.149h-97.833v4.872z" fill="#ffdd40"/></g><g><path d="m379.682 336.447s58.731 44.225 89.948 44.225 31.217-119.344 0-119.344-89.948 44.225-89.948 44.225z" fill="#fee884"/></g><g><path d="m359.682 305.553s-58.731-44.225-89.948-44.225-31.217 119.344 0 119.344 89.948-44.225 89.948-44.225z" fill="#ffdd40"/></g><g><path d="m379.682 281c-3.647 0-7.056.992-10 2.697-2.944-1.705-6.353-2.697-10-2.697-11.046 0-20 8.954-20 20v40c0 11.046 8.954 20 20 20 3.647 0 7.056-.992 10-2.697 2.944 1.705 6.353 2.697 10 2.697 11.046 0 20-8.954 20-20v-40c0-11.046-8.954-20-20-20z" fill="#fcf2c8"/></g><g><g><path d="m359.682 341v-40c0-7.398 4.028-13.843 10-17.302-2.944-1.705-6.353-2.697-10-2.697-11.046 0-20 8.954-20 20v40c0 11.046 8.954 20 20 20 3.647 0 7.056-.992 10-2.697-5.972-3.461-10-9.906-10-17.304z" fill="#fee884"/></g></g></g><g><circle cx="70" cy="196" fill="#ffc839" r="20"/></g><g><path d="m70 196c0-7.398 4.028-13.843 10-17.303-2.944-1.705-6.353-2.697-10-2.697-11.046 0-20 8.954-20 20s8.954 20 20 20c3.647 0 7.056-.992 10-2.697-5.972-3.46-10-9.905-10-17.303z" fill="#ffb332"/></g><g><circle cx="130" cy="196" fill="#ffc839" r="20"/></g><g><path d="m130 196c0-7.398 4.028-13.843 10-17.303-2.944-1.705-6.353-2.697-10-2.697-11.046 0-20 8.954-20 20s8.954 20 20 20c3.647 0 7.056-.992 10-2.697-5.972-3.46-10-9.905-10-17.303z" fill="#ffb332"/></g><g><g><g><path d="m80 396c-8.284 0-15-6.716-15-15v-105c-8.284 0-15-6.716-15-15s6.716-15 15-15h15c8.284 0 15 6.716 15 15v120c0 8.284-6.716 15-15 15z" fill="#fff"/></g></g></g><g><g><g><path d="m173.34 396c-26.655 0-48.34-21.686-48.34-48.34v-53.319c0-26.655 21.686-48.341 48.34-48.341s48.34 21.686 48.34 48.341v53.319c.001 26.654-21.685 48.34-48.34 48.34zm0-120c-10.113 0-18.34 8.228-18.34 18.341v53.319c0 10.112 8.228 18.34 18.34 18.34s18.34-8.228 18.34-18.34v-53.319c.001-10.113-8.227-18.341-18.34-18.341z" fill="#fff"/></g></g></g><g><path d="m158.34 381c0-8.284 6.716-15 15-15-10.113 0-18.34-8.228-18.34-18.34v-53.319c0-10.113 8.228-18.341 18.34-18.341-8.284 0-15-6.716-15-15s6.716-15 15-15c-26.655 0-48.34 21.686-48.34 48.341v53.319c0 26.654 21.686 48.34 48.34 48.34-8.284 0-15-6.716-15-15z" fill="#d3dcfb"/></g><g><path d="m80 336c-8.284 0-15-6.716-15-15v60c0 8.284 6.716 15 15 15s15-6.716 15-15v-60c0 8.284-6.716 15-15 15z" fill="#d3dcfb"/></g></g></svg>