<?xml version="1.0"?>
<svg xmlns="http://www.w3.org/2000/svg" xmlns:xlink="http://www.w3.org/1999/xlink" xmlns:svgjs="http://svgjs.com/svgjs" version="1.1" width="512" height="512" x="0" y="0" viewBox="0 0 495.711 495.711" style="enable-background:new 0 0 512 512" xml:space="preserve" class=""><g><g xmlns="http://www.w3.org/2000/svg"><g><g fill="#cf2283"><path d="m247.856 16.636c-64.444 0-122.938 25.456-165.993 66.852v328.143l301.815 27.264c61.528-46.95 80.353-75.899 90-103.5.128-.365.596-.937.722-1.303 8.404-24.429 12.994-50.636 12.994-77.919-.001-132.292-107.245-239.537-239.538-239.537z" fill="#e95e69" data-original="#cf2283" style="" class=""/><path d="m36.604 143.158c-3.455 6.445-6.625 13.065-9.491 19.846-12.103 28.64-18.795 60.123-18.795 93.17 0 40.857 10.245 79.314 28.286 112.969z" fill="#e95e69" data-original="#cf2283" style="" class=""/></g></g><g><g><path d="m372.408 434.645c17.493-30.587 27.081-92.45 14.496-126.112-8.043-21.516-24.951-39.528-41.52-49.222-13.342-7.792-26.164-12.515-38.476-14.159v-4.309c90.454-24.87 91.125-198.844-60.331-198.844h-106.101c-45.266 22.738-82.325 59.406-105.56 104.377v219.592c8.164 15.802 18.043 30.571 29.378 44.077zm-216.324-316.926c50.959 2.099 76.629-5.981 104.346 11.389 13.393 8.41 18.16 22.18 18.16 37.93-.022 25.166-11.697 41.094-38.536 47.739-21.375 5.285-46.08 1.081-83.97 2.672zm0 168.062h83.108c22.365 0 49.085 9.362 58.493 30.031 7.834 17.268 8.88 54.211-14.17 69.083-12.726 8.215-27.501 12.312-44.324 12.312h-83.108v-111.426z" fill="#fb6771" data-original="#9d1359" style="" class=""/></g></g><g><g><path d="m247.856 495.711c97.357 0 181.142-58.084 218.608-141.486-4.224-16.671-11.518-36.94-17.367-46.23-11.064-17.541-24.404-30.882-40.019-40.018-15.627-9.126-30.645-14.658-45.066-16.585v-5.047c19.221-5.285 36.053-16.946 50.474-34.972 11.508-14.385 18.424-32.055 20.749-53.021.018-.162.021-.328.031-.492.555-5.161.852-10.508.852-16.068 0-74.357-51.637-128.349-142.77-128.349h-216.316-.002v410.628c43.459 44.211 103.935 71.64 170.826 71.64zm-60.503-393.577c59.688 2.459 89.755-7.005 122.219 13.339 14.174 8.901 21.272 23.682 21.272 44.345v.074h-.001c-.017 21.119-6.989 36.237-20.909 45.352-31.778 20.818-63.399 11.214-122.58 13.7v-116.81zm0 196.848h97.343c19.221 0 36.414 5.048 51.556 15.142 15.041 10.027 22.603 26.709 22.704 50.009h.008c0 .156.001.31.001.465 0 24.043-7.459 40.864-22.354 50.474-14.905 9.622-32.211 14.421-51.916 14.421h-97.343v-130.511z" fill="#99e0fe" data-original="#99e0fe" style="" class=""/></g><g><path d="m421.83 157.368c-.001.018-.002.037-.003.055z" fill="#03d0ff" data-original="#03d0ff" style="" class=""/></g><g><path d="m344.286 159.993v.012z" fill="#03d0ff" data-original="#03d0ff" style="" class=""/></g></g><path d="m79.013 426.044 190.536 36.919s191.85-97.739 195.974-106.693c3.158-6.856 6.001-13.887 8.512-21.075l.365-1.102-.305-1.271c-3.182-11.86-7.783-22.716-13.621-31.989l-.006-.009c-12.174-19.302-27.18-34.257-44.611-44.456-6.654-3.885-13.268-7.192-19.814-9.907 10.514-6.834 20.189-15.75 28.941-26.69 13.069-16.337 21.014-36.503 23.613-59.944.034-.304.058-.612.074-.895.591-5.616.89-11.38.89-17.14 0-41.202-14.335-76.426-41.457-101.864-27.85-26.121-67.532-39.928-114.756-39.928h-210.938c-10.395 0-18.822 8.427-18.822 18.822v390.395c4.869 5.856 10.027 11.462 15.425 16.827zm121.783-310.088c12.172.182 22.999-.044 32.863-.25 30.755-.644 49.318-1.035 68.763 11.151 13.425 8.431 14.978 22.849 14.979 32.855l-.001.17h-.001c-.013 16.43-4.864 27.59-14.834 34.118-18.953 12.416-37.86 12.021-69.183 11.366-7.284-.152-15.094-.316-23.544-.316-2.935 0-5.948.02-9.042.067zm0 196.469h83.899c16.669 0 31.094 4.215 44.099 12.884 11.169 7.446 16.637 20.164 16.718 38.882l.006 1.238c-.151 18.867-5.452 31.416-16.195 38.348l-.003.002c-12.792 8.258-27.389 12.272-44.625 12.272h-83.899z" fill="#03d0ff" data-original="#03d0ff" style="" class=""/><path d="m247.856 495.711c93.781 0 174.961-53.902 214.286-132.407 1.061-2.369 2.093-4.757 3.086-7.171-2.315-16.942-8.377-35.825-16.13-48.139-11.064-17.541-24.404-30.882-40.019-40.018-15.627-9.126-30.645-14.658-45.066-16.585v-5.047c19.221-5.285 36.053-16.946 50.474-34.972 11.508-14.385 18.424-32.055 20.749-53.021.589-5.309-2.942-11.836-2.942-17.568 0-74.357-49.452-118.851-140.584-118.851l-214.679-8.489v410.628c43.458 44.211 103.934 71.64 170.825 71.64zm-60.503-393.577c59.688 2.459 89.755-7.005 122.219 13.339 14.174 8.901 21.272 23.682 21.272 44.345 0 21.158-4.144 41.792-18.081 50.918-31.768 20.812-73.403 13.812-132.631 16.3zm99.602 190.228c19.221 0 39.869 8.116 55.011 18.21 15.142 10.095 16.999 30.479 16.999 54.026 0 24.043-7.459 40.864-22.354 50.474-14.905 9.622-32.211 14.421-51.916 14.421h-97.343l-7.221-137.132h106.824z" fill="#5062aa" data-original="#5493fb" style="" class=""/><g><g><g><path d="m353.361 288.459c-20.879-13.919-44.167-20.322-68.665-20.322h-128.188v192.201l30.845-30.845v-130.511h97.343c19.221 0 36.414 5.048 51.556 15.142 15.041 10.027 22.603 26.709 22.704 50.009h30.848c-.146-42.537-19.876-64.629-36.443-75.674z" fill="#00faff" data-original="#9bf7f9" style="" class=""/></g></g><g><g><path d="m330.842 159.892c-.017 21.119-6.989 36.237-20.909 45.352-31.778 20.818-63.399 11.214-122.58 13.7v-116.81c2.691.111-30.845-32.142-30.845-32.142v179.77h32.139c58.477-2.456 96.946 8.302 138.182-18.713 2.077-1.36 12.322-10.193 12.492-10.254 11.89-12.129 22.348-31.223 22.365-60.903z" fill="#00faff" data-original="#9bf7f9" style="" class=""/></g></g><g><g><path d="m405.273 141.792c0 5.889-.384 11.393-1.131 16.558h31.077c.589-5.311.899-10.824.899-16.558 0-74.357-51.637-128.349-142.77-128.349h-216.317l30.845 30.845h185.473c70.083 0 111.924 36.45 111.924 97.504z" fill="#00faff" data-original="#9bf7f9" style="" class=""/></g></g></g><path d="m126.912 462.963v-396.646l169.89-1.049c45.377 0 82.294 36.917 82.294 82.294v20.186c0 45.377-36.917 82.294-82.294 82.294-2.303 0-4.198 1.814-4.298 4.115s1.63 4.272 3.925 4.472l12.36 1.075c.124.011.248.016.373.016 52.722 0 95.614 42.893 95.614 95.615v81.821c2.932-2.544 5.799-5.159 8.604-7.841v-73.98c0-50.844-36.593-93.301-84.829-102.41 34.512-12.906 59.149-46.219 59.149-85.177v-20.186c0-50.121-40.777-90.898-90.925-90.898l-174.192 1.076c-2.365.015-4.275 1.936-4.275 4.302v395.644c2.826 1.82 5.698 3.574 8.604 5.277z" fill="#00faff" data-original="#9bf7f9" style="" class=""/><g><g><g><path d="m42.464 236.545 3.595 9.423c1.801 4.721 5.53 8.45 10.25 10.25l9.423 3.595-9.423 3.595c-4.721 1.801-8.45 5.53-10.25 10.25l-3.595 9.423-3.595-9.423c-1.801-4.721-5.53-8.45-10.25-10.25l-9.423-3.595 9.423-3.595c4.721-1.801 8.45-5.53 10.25-10.25z" fill="#ffffff" data-original="#ffffff" style="" class=""/></g></g><g><g><path d="m86.504 103.671 4.864 12.75c2.436 6.387 7.481 11.432 13.868 13.868l12.75 4.864-12.75 4.864c-6.387 2.436-11.432 7.481-13.868 13.868l-4.864 12.75-4.864-12.75c-2.436-6.387-7.481-11.432-13.868-13.868l-12.75-4.864 12.75-4.864c6.387-2.436 11.432-7.481 13.868-13.868z" fill="#ffffff" data-original="#ffffff" style="" class=""/></g></g><g><g><path d="m450.554 207.72 5.497 14.409c2.754 7.219 8.455 12.92 15.674 15.674l14.409 5.497-14.409 5.497c-7.219 2.754-12.92 8.455-15.674 15.674l-5.497 14.409-5.497-14.409c-2.754-7.219-8.455-12.92-15.674-15.674l-14.409-5.497 14.409-5.497c7.219-2.754 12.92-8.455 15.674-15.674z" fill="#ffffff" data-original="#ffffff" style="" class=""/></g></g></g></g></g></svg>
