<?xml version="1.0"?>
<svg xmlns="http://www.w3.org/2000/svg" xmlns:xlink="http://www.w3.org/1999/xlink" xmlns:svgjs="http://svgjs.com/svgjs" version="1.1" width="512" height="512" x="0" y="0" viewBox="0 0 512 512" style="enable-background:new 0 0 512 512" xml:space="preserve" class=""><g><g xmlns="http://www.w3.org/2000/svg"><circle cx="392" cy="392" fill="#fb6771" r="120" data-original="#f79caf" style="" class=""/><g fill="#acebe2"><path d="m240 66v108c0 36.39-29.61 66-66 66h-108c-36.39 0-66-29.61-66-66v-108c0-36.39 29.61-66 66-66h108c36.39 0 66 29.61 66 66z" fill="#00faff" data-original="#acebe2" style="" class=""/><path d="m512 66v108c0 36.39-29.61 66-66 66h-108c-36.39 0-66-29.61-66-66v-108c0-36.39 29.61-66 66-66h108c36.39 0 66 29.61 66 66z" fill="#00faff" data-original="#acebe2" style="" class=""/><path d="m240 338v108c0 36.39-29.61 66-66 66h-108c-36.39 0-66-29.61-66-66v-108c0-36.39 29.61-66 66-66h108c36.39 0 66 29.61 66 66z" fill="#00faff" data-original="#acebe2" style="" class=""/></g><path d="m512 392c0 66.17-53.83 120-120 120-5.42 0-10.77-.36-16-1.07 58.64-7.84 104-58.19 104-118.93s-45.36-111.09-104-118.93c5.23-.71 10.58-1.07 16-1.07 66.17 0 120 53.83 120 120z" fill="#e95e69" data-original="#e3889b" style="" class=""/><path d="m240 66v108c0 36.39-29.61 66-66 66h-32c36.39 0 66-29.61 66-66v-108c0-36.39-29.61-66-66-66h32c36.39 0 66 29.61 66 66z" fill="#3ed6dc" data-original="#98d7ce" style="" class=""/><path d="m512 66v108c0 36.39-29.61 66-66 66h-32c36.39 0 66-29.61 66-66v-108c0-36.39-29.61-66-66-66h32c36.39 0 66 29.61 66 66z" fill="#3ed6dc" data-original="#98d7ce" style="" class=""/><path d="m240 338v108c0 36.39-29.61 66-66 66h-32c36.39 0 66-29.61 66-66v-108c0-36.39-29.61-66-66-66h32c36.39 0 66 29.61 66 66z" fill="#3ed6dc" data-original="#98d7ce" style="" class=""/></g></g></svg>
