<svg id="Capa_1" enable-background="new 0 0 511.979 511.979" height="512" viewBox="0 0 511.979 511.979" width="512" xmlns="http://www.w3.org/2000/svg"><g><path d="m255.99 0-10 210 10 242.515 225 59.464v-511.979z" fill="#ff5860"/><path d="m30.99 0v511.979l225-59.464v-452.515z" fill="#ff8e7a"/><path d="m255.99 30-10 180 10 211.485 195 51.536v-443.021z" fill="#f9006a"/><path d="m60.99 30v443.021l195-51.536v-391.485z" fill="#ff5860"/><path d="m135.99 390c24.813 0 45-20.187 45-45v-60c0-24.813-20.187-45-45-45s-45 20.187-45 45v60c0 24.813 20.187 45 45 45zm-15-105c0-8.271 6.729-15 15-15s15 6.729 15 15v60c0 8.271-6.729 15-15 15s-15-6.729-15-15z" fill="#fff4f4"/><g fill="#ece4f2"><path d="m330.99 390h30v-60h30v-30h-30v-30h60v-30h-90z"/><path d="m330.99 60h30v30h-30z"/><path d="m390.99 180h30v30h-30z"/><path d="m303.489 120h150.001v30h-150.001z" transform="matrix(.588 -.809 .809 .588 46.806 361.86)"/></g><path d="m134.152 180.677c-5.589 0-10.798-2.771-13.935-7.415l-24.859 16.793c8.723 12.913 23.225 20.622 38.794 20.622 25.802 0 46.794-20.992 46.794-46.795s-20.992-46.794-46.794-46.794h-3.972l3.343-27.088h47.466v-30h-73.991l-10.75 87.088h37.903c9.26 0 16.794 7.534 16.794 16.794.001 9.261-7.533 16.795-16.793 16.795z" fill="#fff4f4"/><path d="m270.99 330v-30h-15l-10 15 10 15z" fill="#ece4f2"/><path d="m300.99 165v-60c0-24.813-20.187-45-45-45l-10 15 10 15c8.271 0 15 6.729 15 15v60c0 8.271-6.729 15-15 15l-10 15 10 15c24.813 0 45-20.187 45-45z" fill="#ece4f2"/><path d="m240.99 165v-60c0-8.271 6.729-15 15-15v-30c-24.813 0-45 20.187-45 45v60c0 24.813 20.187 45 45 45v-30c-8.271 0-15-6.729-15-15z" fill="#fff4f4"/><path d="m300.99 270v-30h-45l-10 15 10 15z" fill="#ece4f2"/><path d="m210.99 390h30v-60h15v-30h-15v-30h15v-30h-45z" fill="#fff4f4"/></g></svg>