<svg id="Capa_1" enable-background="new 0 0 512 512" height="512" viewBox="0 0 512 512" width="512" xmlns="http://www.w3.org/2000/svg"><g><g><path d="m231.756 313.15h48.488v42.427h-48.488z" fill="#b6c4cf"/></g><g><path d="m290.346 387.902h-68.691c-8.926 0-16.163-7.236-16.163-16.163 0-8.926 7.236-16.163 16.163-16.163h68.691c8.926 0 16.163 7.236 16.163 16.163-.001 8.927-7.237 16.163-16.163 16.163z" fill="#ffe177"/></g><g><path d="m231.756 387.902h48.488v32.325h-48.488z" fill="#b6c4cf"/></g><g><path d="m286.406 512h-60.813c-5.523 0-10-4.477-10-10v-69.65c0-6.695 5.427-12.122 12.122-12.122h56.569c6.695 0 12.122 5.427 12.122 12.122v69.65c0 5.523-4.477 10-10 10z" fill="#0573ce"/></g><g><path d="m284.285 420.228h-28.285c6.695 0 12.122 5.427 12.122 12.122v79.65h18.285c5.523 0 10-4.477 10-10v-69.65c-.001-6.695-5.428-12.122-12.122-12.122z" fill="#0067c5"/></g><g><path d="m290.346 355.577h-28.285c8.926 0 16.163 7.236 16.163 16.163s-7.236 16.163-16.163 16.163h28.285c8.926 0 16.163-7.236 16.163-16.163s-7.237-16.163-16.163-16.163z" fill="#ffd15b"/></g><g><circle cx="256" cy="161.626" fill="#0573ce" r="161.626"/></g><g><path d="m351.063 30.999c19.482 26.697 30.999 59.558 30.999 95.063 0 89.121-72.505 161.626-161.626 161.626-35.505 0-68.366-11.517-95.063-30.999 29.419 40.314 77.012 66.563 130.627 66.563 89.121 0 161.626-72.505 161.626-161.626 0-53.616-26.249-101.208-66.563-130.627z" fill="#0067c5"/></g><g><circle cx="256" cy="161.626" fill="#f2fbff" r="129.301"/></g><g><path d="m333.192 57.958c16.094 21.558 25.633 48.282 25.633 77.192 0 71.296-58.004 129.301-129.301 129.301-28.91 0-55.634-9.539-77.192-25.633 23.595 31.607 61.282 52.108 103.668 52.108 71.296 0 129.301-58.004 129.301-129.301 0-42.385-20.502-80.072-52.109-103.667z" fill="#dff6fd"/></g><g><path d="m204.283 240.045c.022 4.946 5.368 8.032 9.662 5.579l85.535-48.874c2.695-1.54 4.871-3.746 6.371-6.342l-99.701-57.562c-1.499 2.597-2.321 5.584-2.307 8.688z" fill="#60b7ff"/></g><g><path d="m298.055 77.628c4.294-2.454 9.64.633 9.662 5.579l.441 98.512c.014 3.104-.808 6.092-2.307 8.688l-99.701-57.562c1.499-2.597 3.676-4.802 6.371-6.342z" fill="#fe76a8"/></g><g><circle cx="256" cy="161.626" fill="#b6c4cf" r="16.163"/></g><g><path d="m215.594 447.073h80.812v15h-80.812z" fill="#0055a3"/></g><g><path d="m504.5 176.626h-46.468c-4.143 0-7.5-3.358-7.5-7.5s3.357-7.5 7.5-7.5h46.468c4.143 0 7.5 3.358 7.5 7.5s-3.357 7.5-7.5 7.5z" fill="#ffe177"/></g><g><path d="m458.039 116.018c-2.592 0-5.113-1.345-6.502-3.751-2.071-3.587-.842-8.174 2.745-10.245l25.614-14.788c3.585-2.071 8.175-.843 10.245 2.745 2.071 3.587.842 8.174-2.745 10.245l-25.614 14.788c-1.18.681-2.47 1.006-3.743 1.006z" fill="#ffe177"/></g><g><path d="m483.64 252.025c-1.272 0-2.562-.324-3.743-1.006l-25.614-14.788c-3.587-2.071-4.816-6.658-2.745-10.245 2.07-3.587 6.655-4.818 10.245-2.745l25.614 14.788c3.587 2.071 4.816 6.658 2.745 10.245-1.389 2.406-3.911 3.751-6.502 3.751z" fill="#ffe177"/></g><g><path d="m53.968 176.626h-46.468c-4.143 0-7.5-3.358-7.5-7.5s3.357-7.5 7.5-7.5h46.468c4.143 0 7.5 3.358 7.5 7.5s-3.358 7.5-7.5 7.5z" fill="#ffe177"/></g><g><path d="m53.961 116.018c-1.272 0-2.562-.324-3.743-1.006l-25.614-14.788c-3.587-2.071-4.816-6.658-2.745-10.245 2.07-3.588 6.655-4.817 10.245-2.745l25.614 14.788c3.587 2.071 4.816 6.658 2.745 10.245-1.389 2.405-3.91 3.751-6.502 3.751z" fill="#ffe177"/></g><g><path d="m28.36 252.025c-2.592 0-5.113-1.345-6.502-3.751-2.071-3.587-.842-8.174 2.745-10.245l25.614-14.788c3.585-2.072 8.174-.843 10.245 2.745 2.071 3.587.842 8.174-2.745 10.245l-25.614 14.788c-1.18.682-2.47 1.006-3.743 1.006z" fill="#ffe177"/></g></g></svg>